HIERARCHY
ROOT Hips
{
  OFFSET 0 96 0
  CHANNELS 6 Xposition Yposition Zposition Zrotation Xrotation Yrotation
  JOINT Spine
  {
    OFFSET 0 18 0
    CHANNELS 3 Zrotation Xrotation Yrotation
    JOINT Spine1
    {
      OFFSET 0 16 0
      CHANNELS 3 Zrotation Xrotation Yrotation
      JOINT Neck
      {
        OFFSET 0 14 0
        CHANNELS 3 Zrotation Xrotation Yrotation
        JOINT Head
        {
          OFFSET 0 12 0
          CHANNELS 3 Zrotation Xrotation Yrotation
          End Site
          {
            OFFSET 0 10 0
          }
        }
      }
      JOINT LeftShoulder
      {
        OFFSET 7 12 0
        CHANNELS 3 Zrotation Xrotation Yrotation
        JOINT LeftArm
        {
          OFFSET 14 0 0
          CHANNELS 3 Zrotation Xrotation Yrotation
          JOINT LeftForeArm
          {
            OFFSET 26 0 0
            CHANNELS 3 Zrotation Xrotation Yrotation
            JOINT LeftHand
            {
              OFFSET 24 0 0
              CHANNELS 3 Zrotation Xrotation Yrotation
              End Site
              {
                OFFSET 10 0 0
              }
            }
          }
        }
      }
      JOINT RightShoulder
      {
        OFFSET -7 12 0
        CHANNELS 3 Zrotation Xrotation Yrotation
        JOINT RightArm
        {
          OFFSET -14 0 0
          CHANNELS 3 Zrotation Xrotation Yrotation
          JOINT RightForeArm
          {
            OFFSET -26 0 0
            CHANNELS 3 Zrotation Xrotation Yrotation
            JOINT RightHand
            {
              OFFSET -24 0 0
              CHANNELS 3 Zrotation Xrotation Yrotation
              End Site
              {
                OFFSET -10 0 0
              }
            }
          }
        }
      }
    }
  }
  JOINT LeftUpLeg
  {
    OFFSET 9 -6 0
    CHANNELS 3 Zrotation Xrotation Yrotation
    JOINT LeftLeg
    {
      OFFSET 0 -42 0
      CHANNELS 3 Zrotation Xrotation Yrotation
      JOINT LeftFoot
      {
        OFFSET 0 -42 0
        CHANNELS 3 Zrotation Xrotation Yrotation
        End Site
        {
          OFFSET 0 -4 12
        }
      }
    }
  }
  JOINT RightUpLeg
  {
    OFFSET -9 -6 0
    CHANNELS 3 Zrotation Xrotation Yrotation
    JOINT RightLeg
    {
      OFFSET 0 -42 0
      CHANNELS 3 Zrotation Xrotation Yrotation
      JOINT RightFoot
      {
        OFFSET 0 -42 0
        CHANNELS 3 Zrotation Xrotation Yrotation
        End Site
        {
          OFFSET 0 -4 12
        }
      }
    }
  }
}
MOTION
Frames: 33
Frame Time: 0.0333333
0 0 0 0 0 0 0 0 0 0 0 0 0 0 0 0 0 0 4 0 6 0 16 -88 28 0 0 0 0 0 4 0 -6 0 16 88 -28 0 0 0 0 0 0 0 0 0 0 0 0 0 0 0 0 0 0 0 0 0 0 0
0 -0.000055 -0.050844 0 0.003884 0 0 0.015537 0 0 0.006992 0 0 -0.010876 0 0 -0.003884 0 4 0 6 0 16 -88 28 0 0 0 0 0 4 0 -6 0 16 88 -28 0 0 0 0 0 0.00971 -0.09322 0 0 0.108757 0 0 -0.023305 0 -0.00971 -0.09322 0 0 0.108757 0 0 -0.023305 0
0 -0.000873 -0.203175 0 0.015522 0 0 0.062086 0 0 0.027939 0 0 -0.04346 0 0 -0.015522 0 4 0 6 0 16 -88 28 0 0 0 0 0 4 0 -6 0 16 88 -28 0 0 0 0 0 0.038804 -0.372518 0 0 0.434604 0 0 -0.09313 0 -0.038804 -0.372518 0 0 0.434604 0 0 -0.09313 0
0 -0.004407 -0.45639 0 0.034867 0 0 0.139468 0 0 0.062761 0 0 -0.097628 0 0 -0.034867 0 4 0 6 0 16 -88 28 0 0 0 0 0 4 0 -6 0 16 88 -28 0 0 0 0 0 0.087168 -0.836809 0 0 0.976277 0 0 -0.209202 0 -0.087168 -0.836809 0 0 0.976277 0 0 -0.209202 0
0 -0.013864 -0.809449 0 0.061845 0 0 0.247382 0 0 0.111322 0 0 -0.173167 0 0 -0.061845 0 4 0 6 0 16 -88 28 0 0 0 0 0 4 0 -6 0 16 88 -28 0 0 0 0 0 0.154614 -1.48429 0 0 1.731672 0 0 -0.371073 0 -0.154614 -1.48429 0 0 1.731672 0 0 -0.371073 0
0 -0.033647 -1.260844 0 0.096352 0 0 0.385408 0 0 0.173433 0 0 -0.269785 0 0 -0.096352 0 4 0 6 0 16 -88 28 0 0 0 0 0 4 0 -6 0 16 88 -28 0 0 0 0 0 0.24088 -2.312446 0 0 2.697854 0 0 -0.578112 0 -0.24088 -2.312446 0 0 2.697854 0 0 -0.578112 0
0 -0.069265 -1.808541 0 0.138253 0 0 0.55301 0 0 0.248855 0 0 -0.387107 0 0 -0.138253 0 4 0 6 0 16 -88 28 0 0 0 0 0 4 0 -6 0 16 88 -28 0 0 0 0 0 0.345631 -3.31806 0 0 3.87107 0 0 -0.829515 0 -0.345631 -3.31806 0 0 3.87107 0 0 -0.829515 0
0 -0.127217 -2.449918 0 0.187384 0 0 0.749538 0 0 0.337292 0 0 -0.524676 0 0 -0.187384 0 4 0 6 0 16 -88 28 0 0 0 0 0 4 0 -6 0 16 88 -28 0 0 0 0 0 0.468461 -4.497226 0 0 5.246764 0 0 -1.124307 0 -0.468461 -4.497226 0 0 5.246764 0 0 -1.124307 0
0 -0.21485 -3.1817 0 0.243557 0 0 0.974227 0 0 0.438402 0 0 -0.681959 0 0 -0.243557 0 4 0 6 0 16 -88 28 0 0 0 0 0 4 0 -6 0 16 88 -28 0 0 0 0 0 0.608892 -5.845364 0 0 6.819592 0 0 -1.461341 0 -0.608892 -5.845364 0 0 6.819592 0 0 -1.461341 0
0 -0.340202 -3.999891 0 0.306552 0 0 1.226206 0 0 0.551793 0 0 -0.858344 0 0 -0.306552 0 4 0 6 0 16 -88 28 0 0 0 0 0 4 0 -6 0 16 88 -28 0 0 0 0 0 0.766379 -7.357238 0 0 8.583445 0 0 -1.83931 0 -0.766379 -7.357238 0 0 8.583445 0 0 -1.83931 0
0 -0.511814 -4.899707 0 0.376124 0 0 1.504496 0 0 0.677023 0 0 -1.053147 0 0 -0.376124 0 4 0 6 0 16 -88 28 0 0 0 0 0 4 0 -6 0 16 88 -28 0 0 0 0 0 0.94031 -9.026976 0 0 10.531472 0 0 -2.256744 0 -0.94031 -9.026976 0 0 10.531472 0 0 -2.256744 0
0 -0.738522 -5.875526 0 0.452004 0 0 1.808015 0 0 0.813607 0 0 -1.265611 0 0 -0.452004 0 4 0 6 0 16 -88 28 0 0 0 0 0 4 0 -6 0 16 88 -28 0 0 0 0 0 1.130009 -10.848091 0 0 12.656106 0 0 -2.712023 0 -1.130009 -10.848091 0 0 12.656106 0 0 -2.712023 0
0 -1.029242 -6.920852 0 0.533896 0 0 2.135585 0 0 0.961013 0 0 -1.49491 0 0 -0.533896 0 4 0 6 0 16 -88 28 0 0 0 0 0 4 0 -6 0 16 88 -28 0 0 0 0 0 1.334741 -12.81351 0 0 14.949095 0 0 -3.203378 0 -1.334741 -12.81351 0 0 14.949095 0 0 -3.203378 0
0 -1.392728 -8.028289 0 0.621483 0 0 2.485933 0 0 1.11867 0 0 -1.740153 0 0 -0.621483 0 4 0 6 0 16 -88 28 0 0 0 0 0 4 0 -6 0 16 88 -28 0 0 0 0 0 1.553708 -14.9156 0 0 17.401533 0 0 -3.7289 0 -1.553708 -14.9156 0 0 17.401533 0 0 -3.7289 0
0 -1.837335 -9.189558 0 0.714425 0 0 2.857699 0 0 1.285965 0 0 -2.000389 0 0 -0.714425 0 4 0 6 0 16 -88 28 0 0 0 0 0 4 0 -6 0 16 88 -28 0 0 0 0 0 1.786062 -17.146195 0 0 20.003894 0 0 -4.286549 0 -1.786062 -17.146195 0 0 20.003894 0 0 -4.286549 0
0 -2.370774 -10.395523 0 0.81236 0 0 3.249439 0 0 1.462247 0 0 -2.274607 0 0 -0.81236 0 4 0 6 0 16 -88 28 0 0 0 0 0 4 0 -6 0 16 88 -28 0 0 0 0 0 2.030899 -19.496631 0 0 22.74607 0 0 -4.874158 0 -2.030899 -19.496631 0 0 22.74607 0 0 -4.874158 0
0 -2.999875 -11.636263 0 0.914907 0 0 3.65963 0 0 1.646833 0 0 -2.561741 0 0 -0.914907 0 4 0 6 0 16 -88 28 0 0 0 0 0 4 0 -6 0 16 88 -28 0 0 0 0 0 2.287269 -21.957779 0 0 25.617409 0 0 -5.489445 0 -2.287269 -21.957779 0 0 25.617409 0 0 -5.489445 0
0 -3.730355 -12.901171 0 1.02167 0 0 4.08668 0 0 1.839006 0 0 -2.860676 0 0 -1.02167 0 4 0 6 0 16 -88 28 0 0 0 0 0 4 0 -6 0 16 88 -28 0 0 0 0 0 2.554175 -24.52008 0 0 28.60676 0 0 -6.13002 0 -2.554175 -24.52008 0 0 28.60676 0 0 -6.13002 0
0 -4.566618 -14.179076 0 1.132233 0 0 4.52893 0 0 2.038019 0 0 -3.170251 0 0 -1.132233 0 4 0 6 0 16 -88 28 0 0 0 0 0 4 0 -6 0 16 88 -28 0 0 0 0 0 2.830581 -27.173581 0 0 31.702511 0 0 -6.793395 0 -2.830581 -27.173581 0 0 31.702511 0 0 -6.793395 0
0 -5.511567 -15.458415 0 1.246166 0 0 4.984662 0 0 2.243098 0 0 -3.489264 0 0 -1.246166 0 4 0 6 0 16 -88 28 0 0 0 0 0 4 0 -6 0 16 88 -28 0 0 0 0 0 3.115414 -29.907974 0 0 34.892637 0 0 -7.476994 0 -3.115414 -29.907974 0 0 34.892637 0 0 -7.476994 0
0 -6.566459 -16.727411 0 1.363027 0 0 5.452107 0 0 2.453448 0 0 -3.816475 0 0 -1.363027 0 4 0 6 0 16 -88 28 0 0 0 0 0 4 0 -6 0 16 88 -28 0 0 0 0 0 3.407567 -32.712641 0 0 38.164748 0 0 -8.17816 0 -3.407567 -32.712641 0 0 38.164748 0 0 -8.17816 0
0 -7.730799 -17.974285 0 1.482362 0 0 5.929448 0 0 2.668251 0 0 -4.150613 0 0 -1.482362 0 4 0 6 0 16 -88 28 0 0 0 0 0 4 0 -6 0 16 88 -28 0 0 0 0 0 3.705905 -35.576686 0 0 41.506133 0 0 -8.894171 0 -3.705905 -35.576686 0 0 41.506133 0 0 -8.894171 0
0 -9.002272 -19.187483 0 1.603708 0 0 6.414831 0 0 2.886674 0 0 -4.490382 0 0 -1.603708 0 4 0 6 0 16 -88 28 0 0 0 0 0 4 0 -6 0 16 88 -28 0 0 0 0 0 4.009269 -38.488985 0 0 44.903816 0 0 -9.622246 0 -4.009269 -38.488985 0 0 44.903816 0 0 -9.622246 0
0 -10.376726 -20.355907 0 1.726593 0 0 6.906371 0 0 3.107867 0 0 -4.83446 0 0 -1.726593 0 4 0 6 0 16 -88 28 0 0 0 0 0 4 0 -6 0 16 88 -28 0 0 0 0 0 4.316482 -41.438227 0 0 48.344598 0 0 -10.359557 0 -4.316482 -41.438227 0 0 48.344598 0 0 -10.359557 0
0 -11.848206 -21.469148 0 1.85054 0 0 7.402159 0 0 3.330972 0 0 -5.181511 0 0 -1.85054 0 4 0 6 0 16 -88 28 0 0 0 0 0 4 0 -6 0 16 88 -28 0 0 0 0 0 4.62635 -44.412956 0 0 51.815115 0 0 -11.103239 0 -4.62635 -44.412956 0 0 51.815115 0 0 -11.103239 0
0 -13.40903 -22.517713 0 1.975067 0 0 7.900269 0 0 3.555121 0 0 -5.530189 0 0 -1.975067 0 4 0 6 0 16 -88 28 0 0 0 0 0 4 0 -6 0 16 88 -28 0 0 0 0 0 4.937668 -47.401617 0 0 55.301886 0 0 -11.850404 0 -4.937668 -47.401617 0 0 55.301886 0 0 -11.850404 0
0 -15.049916 -23.493234 0 2.099692 0 0 8.398767 0 0 3.779445 0 0 -5.879137 0 0 -2.099692 0 4 0 6 0 16 -88 28 0 0 0 0 0 4 0 -6 0 16 88 -28 0 0 0 0 0 5.249229 -50.392603 0 0 58.79137 0 0 -12.598151 0 -5.249229 -50.392603 0 0 58.79137 0 0 -12.598151 0
0 -16.760146 -24.388649 0 2.223929 0 0 8.895716 0 0 4.003072 0 0 -6.227001 0 0 -2.223929 0 4 0 6 0 16 -88 28 0 0 0 0 0 4 0 -6 0 16 88 -28 0 0 0 0 0 5.559822 -53.374295 0 0 62.270011 0 0 -13.343574 0 -5.559822 -53.374295 0 0 62.270011 0 0 -13.343574 0
0 -18.52777 -25.198363 0 2.347296 0 0 9.389185 0 0 4.225133 0 0 -6.57243 0 0 -2.347296 0 4 0 6 0 16 -88 28 0 0 0 0 0 4 0 -6 0 16 88 -28 0 0 0 0 0 5.868241 -56.335113 0 0 65.724298 0 0 -14.083778 0 -5.868241 -56.335113 0 0 65.724298 0 0 -14.083778 0
0 -20.339832 -25.918354 0 2.469315 0 0 9.877259 0 0 4.444767 0 0 -6.914081 0 0 -2.469315 0 4 0 6 0 16 -88 28 0 0 0 0 0 4 0 -6 0 16 88 -28 0 0 0 0 0 6.173287 -59.263555 0 0 69.140814 0 0 -14.815889 0 -6.173287 -59.263555 0 0 69.140814 0 0 -14.815889 0
0 -22.182618 -26.546255 0 2.58951 0 0 10.358041 0 0 4.661119 0 0 -7.250629 0 0 -2.58951 0 4 0 6 0 16 -88 28 0 0 0 0 0 4 0 -6 0 16 88 -28 0 0 0 0 0 6.473776 -62.148248 0 0 72.50629 0 0 -15.537062 0 -6.473776 -62.148248 0 0 72.50629 0 0 -15.537062 0
0 -24.041916 -27.081381 0 2.707416 0 0 10.829665 0 0 4.873349 0 0 -7.580765 0 0 -2.707416 0 4 0 6 0 16 -88 28 0 0 0 0 0 4 0 -6 0 16 88 -28 0 0 0 0 0 6.76854 -64.977987 0 0 75.807652 0 0 -16.244497 0 -6.76854 -64.977987 0 0 75.807652 0 0 -16.244497 0
0 -25.903271 -27.524715 0 2.822574 0 0 11.290297 0 0 5.080634 0 0 -7.903208 0 0 -2.822574 0 4 0 6 0 16 -88 28 0 0 0 0 0 4 0 -6 0 16 88 -28 0 0 0 0 0 7.056436 -67.741781 0 0 79.032078 0 0 -16.935445 0 -7.056436 -67.741781 0 0 79.032078 0 0 -16.935445 0
